<svg xmlns="http://www.w3.org/2000/svg" width="430" height="430" fill="none" viewBox="0 0 430 430"><g id="Logo"><rect width="430" height="430" fill="none"/><g id="ŠTÍT" filter="url(#filter0_d_23_3)" opacity=".8"><path fill="#006076" d="M209.259 64.1077C211.36 63.3897 213.64 63.3912 215.739 64.1119L324.745 101.525C328.28 102.738 330.844 105.822 331.391 109.519L346.608 212.35C346.865 214.086 346.66 215.859 346.015 217.491L314.411 297.432C313.502 299.729 311.776 301.609 309.565 302.709L218.954 347.784C216.149 349.18 212.851 349.18 210.046 347.784L119.435 302.709C117.224 301.609 115.498 299.729 114.589 297.432L82.9069 217.294C82.3112 215.787 82.0906 214.158 82.264 212.547L93.3185 109.833C93.7342 105.969 96.3502 102.697 100.027 101.44L209.259 64.1077Z"/></g><g id="Meda"><g id="Silueta-Medvěd" filter="url(#filter1_d_23_3)"><mask id="path-2-inside-1_23_3" fill="#fff"><path d="M167.714 104.918C125.17 79.6207 92.1277 120.35 117.728 154.613C117.983 154.953 118.012 155.421 117.783 155.779C101.316 181.565 96.439 228.72 114.413 271.436C114.726 272.179 115.752 272.261 116.208 271.597C118.716 267.947 121.337 265.143 122.072 261.403C122.27 260.399 123.817 259.837 124.439 260.649C146.081 288.845 155.529 301.965 177.03 319.839C177.679 320.379 178.665 319.92 178.665 319.076V310.582C178.665 309.694 179.739 309.249 180.372 309.872C191.151 320.483 198.517 327.186 212.768 333.999C213.018 334.119 213.316 334.128 213.574 334.025C231.458 326.855 240.198 320.287 251.47 309.779C252.112 309.18 253.165 309.631 253.165 310.508V318.972C253.165 319.833 254.188 320.285 254.832 319.714C279.124 298.186 291.919 284.819 306.979 259.684C307.429 258.933 308.566 259.071 308.81 259.913L311.83 270.314C312.098 271.236 313.387 271.273 313.721 270.372C329.614 227.561 331.092 201.998 312.819 155.579C312.722 155.333 312.727 155.045 312.83 154.801C331.334 111.215 291.983 77.6182 261.143 104.762C260.855 105.015 260.432 105.094 260.077 104.951C240.694 97.1512 230.222 96.4415 213.763 104.879C213.404 105.063 212.959 105.015 212.645 104.76C200.778 95.0902 190.723 95.5657 168.644 104.983C168.348 105.11 167.991 105.083 167.714 104.918Z"/></mask><path fill="#654D29" d="M167.714 104.918C125.17 79.6207 92.1277 120.35 117.728 154.613C117.983 154.953 118.012 155.421 117.783 155.779C101.316 181.565 96.439 228.72 114.413 271.436C114.726 272.179 115.752 272.261 116.208 271.597C118.716 267.947 121.337 265.143 122.072 261.403C122.27 260.399 123.817 259.837 124.439 260.649C146.081 288.845 155.529 301.965 177.03 319.839C177.679 320.379 178.665 319.92 178.665 319.076V310.582C178.665 309.694 179.739 309.249 180.372 309.872C191.151 320.483 198.517 327.186 212.768 333.999C213.018 334.119 213.316 334.128 213.574 334.025C231.458 326.855 240.198 320.287 251.47 309.779C252.112 309.18 253.165 309.631 253.165 310.508V318.972C253.165 319.833 254.188 320.285 254.832 319.714C279.124 298.186 291.919 284.819 306.979 259.684C307.429 258.933 308.566 259.071 308.81 259.913L311.83 270.314C312.098 271.236 313.387 271.273 313.721 270.372C329.614 227.561 331.092 201.998 312.819 155.579C312.722 155.333 312.727 155.045 312.83 154.801C331.334 111.215 291.983 77.6182 261.143 104.762C260.855 105.015 260.432 105.094 260.077 104.951C240.694 97.1512 230.222 96.4415 213.763 104.879C213.404 105.063 212.959 105.015 212.645 104.76C200.778 95.0902 190.723 95.5657 168.644 104.983C168.348 105.11 167.991 105.083 167.714 104.918Z"/><path stroke="#1D1D1D" stroke-width="60" d="M167.714 104.918C125.17 79.6207 92.1277 120.35 117.728 154.613C117.983 154.953 118.012 155.421 117.783 155.779C101.316 181.565 96.439 228.72 114.413 271.436C114.726 272.179 115.752 272.261 116.208 271.597C118.716 267.947 121.337 265.143 122.072 261.403C122.27 260.399 123.817 259.837 124.439 260.649C146.081 288.845 155.529 301.965 177.03 319.839C177.679 320.379 178.665 319.92 178.665 319.076V310.582C178.665 309.694 179.739 309.249 180.372 309.872C191.151 320.483 198.517 327.186 212.768 333.999C213.018 334.119 213.316 334.128 213.574 334.025C231.458 326.855 240.198 320.287 251.47 309.779C252.112 309.18 253.165 309.631 253.165 310.508V318.972C253.165 319.833 254.188 320.285 254.832 319.714C279.124 298.186 291.919 284.819 306.979 259.684C307.429 258.933 308.566 259.071 308.81 259.913L311.83 270.314C312.098 271.236 313.387 271.273 313.721 270.372C329.614 227.561 331.092 201.998 312.819 155.579C312.722 155.333 312.727 155.045 312.83 154.801C331.334 111.215 291.983 77.6182 261.143 104.762C260.855 105.015 260.432 105.094 260.077 104.951C240.694 97.1512 230.222 96.4415 213.763 104.879C213.404 105.063 212.959 105.015 212.645 104.76C200.778 95.0902 190.723 95.5657 168.644 104.983C168.348 105.11 167.991 105.083 167.714 104.918Z" mask="url(#path-2-inside-1_23_3)"/></g><g id="Eyes"><g id="Eye"><mask id="path-3-inside-2_23_3" fill="#fff"><path d="M179.665 163.688C167.328 159.507 160.639 159.815 149.165 165.688L168.165 168.688C169.118 175.627 171.539 178.002 177.165 181.188C169.504 199.409 172.217 209.001 176.165 226.188C177.167 205.516 178.166 194.286 190.165 182.688C198.462 177.8 202.14 173.961 205.665 163.688C195.511 167.307 189.818 168.173 179.665 163.688Z"/></mask><g filter="url(#filter2_i_23_3)"><path fill="#1D1D1D" d="M179.665 163.688C167.328 159.507 160.639 159.815 149.165 165.688L168.165 168.688C169.118 175.627 171.539 178.002 177.165 181.188C169.504 199.409 172.217 209.001 176.165 226.188C177.167 205.516 178.166 194.286 190.165 182.688C198.462 177.8 202.14 173.961 205.665 163.688C195.511 167.307 189.818 168.173 179.665 163.688Z"/></g><path stroke="#1D1D1D" stroke-width="6" d="M179.665 163.688C167.328 159.507 160.639 159.815 149.165 165.688L168.165 168.688C169.118 175.627 171.539 178.002 177.165 181.188C169.504 199.409 172.217 209.001 176.165 226.188C177.167 205.516 178.166 194.286 190.165 182.688C198.462 177.8 202.14 173.961 205.665 163.688C195.511 167.307 189.818 168.173 179.665 163.688Z" mask="url(#path-3-inside-2_23_3)"/></g><g id="Eye_2"><mask id="path-4-inside-3_23_3" fill="#fff"><path d="M250.165 163.509C262.501 159.328 269.191 159.635 280.665 165.509L261.665 168.509C260.712 175.448 258.291 177.823 252.665 181.009C260.326 199.23 257.612 208.822 253.665 226.009C252.662 205.336 251.663 194.107 239.665 182.509C231.368 177.62 227.689 173.781 224.165 163.509C234.318 167.128 240.011 167.993 250.165 163.509Z"/></mask><g filter="url(#filter3_i_23_3)"><path fill="#1D1D1D" d="M250.165 163.509C262.501 159.328 269.191 159.635 280.665 165.509L261.665 168.509C260.712 175.448 258.291 177.823 252.665 181.009C260.326 199.23 257.612 208.822 253.665 226.009C252.662 205.336 251.663 194.107 239.665 182.509C231.368 177.62 227.689 173.781 224.165 163.509C234.318 167.128 240.011 167.993 250.165 163.509Z"/></g><path stroke="#1D1D1D" stroke-width="6" d="M250.165 163.509C262.501 159.328 269.191 159.635 280.665 165.509L261.665 168.509C260.712 175.448 258.291 177.823 252.665 181.009C260.326 199.23 257.612 208.822 253.665 226.009C252.662 205.336 251.663 194.107 239.665 182.509C231.368 177.62 227.689 173.781 224.165 163.509C234.318 167.128 240.011 167.993 250.165 163.509Z" mask="url(#path-4-inside-3_23_3)"/></g></g><g id="Mouth" style="mix-blend-mode:darken"><path id="Mouth_2" fill="#1D1D1D" d="M249.165 233.188C249.426 240.688 243.165 265.688 213.665 265.688C184.165 265.688 179.165 237.688 179.665 233.188C180.165 228.688 196.165 208.688 213.665 208.688C231.165 208.688 248.903 225.688 249.165 233.188Z"/><g id="Zuby"><path fill="#fff" d="M194.768 237.779C195.122 238.768 196.566 238.613 196.702 237.572L197.665 230.188C210.942 226.222 218.387 226.261 231.665 230.188L232.296 237.444C232.387 238.497 233.836 238.706 234.223 237.723L237.511 229.352C237.883 228.405 237.483 227.326 236.577 226.862C219.361 218.052 209.232 217.998 192.658 226.874C191.795 227.337 191.406 228.365 191.736 229.287L194.768 237.779Z"/><path fill="#fff" d="M202.51 245.11C201.975 244.263 200.665 244.642 200.665 245.644V253.688C200.665 255.345 202.008 256.688 203.665 256.688H225.059C226.757 256.688 228.116 255.281 228.058 253.585L227.794 245.953C227.759 244.928 226.388 244.614 225.91 245.522L222.665 251.688H206.665L202.51 245.11Z"/><path stroke="#fff" stroke-width="3" d="M194.768 237.779C195.122 238.768 196.566 238.613 196.702 237.572L197.665 230.188C210.942 226.222 218.387 226.261 231.665 230.188L232.296 237.444C232.387 238.497 233.836 238.706 234.223 237.723L237.511 229.352C237.883 228.405 237.483 227.326 236.577 226.862C219.361 218.052 209.232 217.998 192.658 226.874C191.795 227.337 191.406 228.365 191.736 229.287L194.768 237.779Z"/><path stroke="#fff" stroke-width="3" d="M202.51 245.11C201.975 244.263 200.665 244.642 200.665 245.644V253.688C200.665 255.345 202.008 256.688 203.665 256.688H225.059C226.757 256.688 228.116 255.281 228.058 253.585L227.794 245.953C227.759 244.928 226.388 244.614 225.91 245.522L222.665 251.688H206.665L202.51 245.11Z"/></g></g><g id="Nose"><path id="Nose_2" fill="#1D1D1D" stroke="#1D1D1D" stroke-width="3" d="M241.14 204.858C224.275 175.411 204.74 175.299 186.484 204.522C186.194 204.986 186.744 205.504 187.182 205.175L195.165 199.188C207.665 216.188 221.665 215.688 231.165 199.188L240.447 205.517C240.881 205.813 241.401 205.314 241.14 204.858Z"/><path id="Dira" fill="#654D29" stroke="#654D29" stroke-width="2" d="M227.642 197.829C226.37 180.111 202.776 180.288 200.77 196.987C200.755 197.109 200.983 197.162 201.03 197.049C203.007 192.382 209.665 191.688 209.665 191.688C213.665 192.188 204.665 205.188 214.665 205.188C224.665 205.188 216.597 193.043 218.665 191.688C221.4 189.897 226.402 196.452 227.463 197.908C227.523 197.989 227.649 197.93 227.642 197.829Z"/></g></g></g><defs><filter id="filter0_d_23_3" width="272.509" height="293.261" x="78.207" y="63.57" color-interpolation-filters="sRGB" filterUnits="userSpaceOnUse"><feFlood flood-opacity="0" result="BackgroundImageFix"/><feColorMatrix in="SourceAlpha" result="hardAlpha" type="matrix" values="0 0 0 0 0 0 0 0 0 0 0 0 0 0 0 0 0 0 127 0"/><feOffset dy="4"/><feGaussianBlur stdDeviation="2"/><feComposite in2="hardAlpha" operator="out"/><feColorMatrix type="matrix" values="0 0 0 0 0 0 0 0 0 0 0 0 0 0 0 0 0 0 0.25 0"/><feBlend in2="BackgroundImageFix" mode="normal" result="effect1_dropShadow_23_3"/><feBlend in="SourceGraphic" in2="effect1_dropShadow_23_3" mode="normal" result="shape"/></filter><filter id="filter1_d_23_3" width="231.083" height="247.096" x="99" y="95" color-interpolation-filters="sRGB" filterUnits="userSpaceOnUse"><feFlood flood-opacity="0" result="BackgroundImageFix"/><feColorMatrix in="SourceAlpha" result="hardAlpha" type="matrix" values="0 0 0 0 0 0 0 0 0 0 0 0 0 0 0 0 0 0 127 0"/><feOffset dy="4"/><feGaussianBlur stdDeviation="2"/><feComposite in2="hardAlpha" operator="out"/><feColorMatrix type="matrix" values="0 0 0 0 0 0 0 0 0 0 0 0 0 0 0 0 0 0 0.25 0"/><feBlend in2="BackgroundImageFix" mode="normal" result="effect1_dropShadow_23_3"/><feBlend in="SourceGraphic" in2="effect1_dropShadow_23_3" mode="normal" result="shape"/></filter><filter id="filter2_i_23_3" width="56.5" height="69.321" x="149.165" y="160.868" color-interpolation-filters="sRGB" filterUnits="userSpaceOnUse"><feFlood flood-opacity="0" result="BackgroundImageFix"/><feBlend in="SourceGraphic" in2="BackgroundImageFix" mode="normal" result="shape"/><feColorMatrix in="SourceAlpha" result="hardAlpha" type="matrix" values="0 0 0 0 0 0 0 0 0 0 0 0 0 0 0 0 0 0 127 0"/><feOffset dy="4"/><feGaussianBlur stdDeviation="2"/><feComposite in2="hardAlpha" k2="-1" k3="1" operator="arithmetic"/><feColorMatrix type="matrix" values="0 0 0 0 0 0 0 0 0 0 0 0 0 0 0 0 0 0 0.25 0"/><feBlend in2="shape" mode="normal" result="effect1_innerShadow_23_3"/></filter><filter id="filter3_i_23_3" width="56.5" height="69.321" x="224.165" y="160.688" color-interpolation-filters="sRGB" filterUnits="userSpaceOnUse"><feFlood flood-opacity="0" result="BackgroundImageFix"/><feBlend in="SourceGraphic" in2="BackgroundImageFix" mode="normal" result="shape"/><feColorMatrix in="SourceAlpha" result="hardAlpha" type="matrix" values="0 0 0 0 0 0 0 0 0 0 0 0 0 0 0 0 0 0 127 0"/><feOffset dy="4"/><feGaussianBlur stdDeviation="2"/><feComposite in2="hardAlpha" k2="-1" k3="1" operator="arithmetic"/><feColorMatrix type="matrix" values="0 0 0 0 0 0 0 0 0 0 0 0 0 0 0 0 0 0 0.25 0"/><feBlend in2="shape" mode="normal" result="effect1_innerShadow_23_3"/></filter></defs></svg>