<svg xmlns="http://www.w3.org/2000/svg" width="261" height="102" fill="none" viewBox="0 0 261 102"><g id="ahast" filter="url(#filter0_d_3_2)"><path fill="#1D5B48" d="M31.3996 75.96C27.6236 75.96 24.1996 75.16 21.1276 73.56C18.0556 71.96 15.6236 69.624 13.8316 66.552C12.0396 63.416 11.1436 59.544 11.1436 54.936C11.1436 50.456 12.0716 46.616 13.9276 43.416C15.8476 40.152 18.3436 37.656 21.4156 35.928C24.5516 34.136 27.9436 33.24 31.5916 33.24C35.4316 33.24 38.5996 34.04 41.0956 35.64C43.5916 37.24 45.5116 39.16 46.8556 41.4L46.2796 42.936L47.2396 34.872H56.1676V75H46.4716V64.824L47.4316 67.224C47.1756 67.736 46.6316 68.472 45.7996 69.432C44.9676 70.392 43.8796 71.384 42.5356 72.408C41.1916 73.368 39.5596 74.2 37.6396 74.904C35.7836 75.608 33.7036 75.96 31.3996 75.96ZM33.9916 67.992C37.1916 67.992 39.8796 67.16 42.0556 65.496C44.2956 63.768 45.7676 61.432 46.4716 58.488V50.232C45.7036 47.608 44.1356 45.432 41.7676 43.704C39.4636 41.976 36.7756 41.112 33.7036 41.112C31.3996 41.112 29.2876 41.688 27.3676 42.84C25.4476 43.928 23.9116 45.496 22.7596 47.544C21.6076 49.528 21.0316 51.832 21.0316 54.456C21.0316 57.016 21.6076 59.32 22.7596 61.368C23.9756 63.416 25.5756 65.048 27.5596 66.264C29.5436 67.416 31.6876 67.992 33.9916 67.992ZM71.3184 75V0.407999H80.8224V43.992L80.6304 42.36C82.0384 39.736 84.1184 37.592 86.8704 35.928C89.6224 34.2 92.9184 33.336 96.7584 33.336C100.534 33.336 103.638 34.456 106.07 36.696C108.502 38.872 109.75 41.752 109.814 45.336V75H100.118V48.696C100.054 46.648 99.4464 44.984 98.2944 43.704C97.1424 42.36 95.3504 41.656 92.9184 41.592C89.5264 41.592 86.6784 43.032 84.3744 45.912C82.1344 48.728 81.0144 52.312 81.0144 56.664V75H71.3184ZM141.837 75.96C138.061 75.96 134.637 75.16 131.565 73.56C128.493 71.96 126.061 69.624 124.269 66.552C122.477 63.416 121.581 59.544 121.581 54.936C121.581 50.456 122.509 46.616 124.365 43.416C126.285 40.152 128.781 37.656 131.853 35.928C134.989 34.136 138.381 33.24 142.029 33.24C145.869 33.24 149.037 34.04 151.533 35.64C154.029 37.24 155.949 39.16 157.293 41.4L156.717 42.936L157.677 34.872H166.605V75H156.909V64.824L157.869 67.224C157.613 67.736 157.069 68.472 156.237 69.432C155.405 70.392 154.317 71.384 152.973 72.408C151.629 73.368 149.997 74.2 148.077 74.904C146.221 75.608 144.141 75.96 141.837 75.96ZM144.429 67.992C147.629 67.992 150.317 67.16 152.493 65.496C154.733 63.768 156.205 61.432 156.909 58.488V50.232C156.141 47.608 154.573 45.432 152.205 43.704C149.901 41.976 147.213 41.112 144.141 41.112C141.837 41.112 139.725 41.688 137.805 42.84C135.885 43.928 134.349 45.496 133.197 47.544C132.045 49.528 131.469 51.832 131.469 54.456C131.469 57.016 132.045 59.32 133.197 61.368C134.413 63.416 136.013 65.048 137.997 66.264C139.981 67.416 142.125 67.992 144.429 67.992ZM193.372 75.864C190.428 75.864 187.612 75.352 184.924 74.328C182.236 73.24 179.964 71.704 178.108 69.72L182.236 64.152C183.9 65.752 185.628 66.968 187.42 67.8C189.276 68.632 191.004 69.048 192.604 69.048C194.46 69.048 196.092 68.696 197.5 67.992C198.908 67.224 199.612 65.976 199.612 64.248C199.612 62.84 199.132 61.752 198.172 60.984C197.276 60.216 196.124 59.576 194.716 59.064C193.308 58.552 191.804 58.072 190.204 57.624C186.876 56.536 184.316 55 182.524 53.016C180.796 50.968 179.932 48.568 179.932 45.816C179.932 43.704 180.444 41.72 181.468 39.864C182.556 37.944 184.188 36.408 186.364 35.256C188.54 34.04 191.228 33.432 194.428 33.432C197.244 33.432 199.772 33.784 202.012 34.488C204.252 35.128 206.332 36.248 208.252 37.848L204.508 43.704C203.356 42.552 201.98 41.688 200.38 41.112C198.844 40.472 197.436 40.12 196.156 40.056C194.428 40.056 192.924 40.472 191.644 41.304C190.364 42.072 189.724 43.128 189.724 44.472C189.724 45.816 190.172 46.904 191.068 47.736C191.964 48.504 193.116 49.144 194.524 49.656C195.996 50.104 197.468 50.584 198.94 51.096C201.884 52.056 204.316 53.368 206.236 55.032C208.22 56.696 209.212 59.128 209.212 62.328C209.212 64.76 208.636 67 207.484 69.048C206.332 71.096 204.572 72.76 202.204 74.04C199.9 75.256 196.956 75.864 193.372 75.864ZM225.346 17.304H235.138V34.968H245.89V42.552H235.138V75H225.346V42.552H218.242V34.968H225.346V17.304Z"/></g><defs><filter id="filter0_d_3_2" width="260.746" height="108.552" x=".144" y=".408" color-interpolation-filters="sRGB" filterUnits="userSpaceOnUse"><feFlood flood-opacity="0" result="BackgroundImageFix"/><feColorMatrix in="SourceAlpha" result="hardAlpha" type="matrix" values="0 0 0 0 0 0 0 0 0 0 0 0 0 0 0 0 0 0 127 0"/><feOffset dx="2" dy="20"/><feGaussianBlur stdDeviation="6.5"/><feComposite in2="hardAlpha" operator="out"/><feColorMatrix type="matrix" values="0 0 0 0 0 0 0 0 0 0 0 0 0 0 0 0 0 0 0.3 0"/><feBlend in2="BackgroundImageFix" mode="normal" result="effect1_dropShadow_3_2"/><feBlend in="SourceGraphic" in2="effect1_dropShadow_3_2" mode="normal" result="shape"/></filter></defs></svg>