<svg xmlns="http://www.w3.org/2000/svg" width="430" height="430" fill="none" viewBox="0 0 430 430"><g id="Logo" clip-path="url(#clip0_1_3)"><g id="ŠTÍT" filter="url(#filter0_d_1_3)" opacity=".8"><path fill="#006076" d="M209.259 64.1077C211.36 63.3897 213.64 63.3912 215.739 64.1119L324.745 101.525C328.28 102.738 330.844 105.822 331.391 109.519L346.608 212.35C346.865 214.086 346.66 215.859 346.015 217.491L314.411 297.432C313.502 299.729 311.776 301.609 309.565 302.709L218.954 347.784C216.149 349.18 212.851 349.18 210.046 347.784L119.435 302.709C117.224 301.609 115.498 299.729 114.589 297.432L82.9069 217.294C82.3112 215.787 82.0906 214.158 82.264 212.547L93.3185 109.833C93.7342 105.969 96.3502 102.697 100.027 101.44L209.259 64.1077Z"/></g><g id="Meda"><g id="Silueta-Medvěd" filter="url(#filter1_d_1_3)"><mask id="path-2-inside-1_1_3" fill="#fff"><path d="M167.714 104.918C125.17 79.6207 92.1277 120.35 117.728 154.613C117.983 154.953 118.012 155.421 117.783 155.779C101.316 181.565 96.439 228.72 114.413 271.436C114.726 272.179 115.752 272.261 116.208 271.597C118.716 267.947 121.337 265.143 122.072 261.403C122.27 260.399 123.817 259.837 124.439 260.649C146.081 288.845 155.529 301.965 177.03 319.839C177.679 320.379 178.665 319.92 178.665 319.076V310.582C178.665 309.694 179.739 309.249 180.372 309.872C191.151 320.483 198.517 327.186 212.768 333.999C213.018 334.119 213.316 334.128 213.574 334.025C231.458 326.855 240.198 320.287 251.47 309.779C252.112 309.18 253.165 309.631 253.165 310.508V318.972C253.165 319.833 254.188 320.285 254.832 319.714C279.124 298.186 291.919 284.819 306.979 259.684C307.429 258.933 308.566 259.071 308.81 259.913L311.83 270.314C312.098 271.236 313.387 271.273 313.721 270.372C329.614 227.561 331.092 201.998 312.819 155.579C312.722 155.333 312.727 155.045 312.83 154.801C331.334 111.215 291.983 77.6182 261.143 104.762C260.855 105.015 260.432 105.094 260.077 104.951C240.694 97.1512 230.222 96.4415 213.763 104.879C213.404 105.063 212.959 105.015 212.645 104.76C200.778 95.0902 190.723 95.5657 168.644 104.983C168.348 105.11 167.991 105.083 167.714 104.918Z"/></mask><path fill="#654D29" d="M167.714 104.918C125.17 79.6207 92.1277 120.35 117.728 154.613C117.983 154.953 118.012 155.421 117.783 155.779C101.316 181.565 96.439 228.72 114.413 271.436C114.726 272.179 115.752 272.261 116.208 271.597C118.716 267.947 121.337 265.143 122.072 261.403C122.27 260.399 123.817 259.837 124.439 260.649C146.081 288.845 155.529 301.965 177.03 319.839C177.679 320.379 178.665 319.92 178.665 319.076V310.582C178.665 309.694 179.739 309.249 180.372 309.872C191.151 320.483 198.517 327.186 212.768 333.999C213.018 334.119 213.316 334.128 213.574 334.025C231.458 326.855 240.198 320.287 251.47 309.779C252.112 309.18 253.165 309.631 253.165 310.508V318.972C253.165 319.833 254.188 320.285 254.832 319.714C279.124 298.186 291.919 284.819 306.979 259.684C307.429 258.933 308.566 259.071 308.81 259.913L311.83 270.314C312.098 271.236 313.387 271.273 313.721 270.372C329.614 227.561 331.092 201.998 312.819 155.579C312.722 155.333 312.727 155.045 312.83 154.801C331.334 111.215 291.983 77.6182 261.143 104.762C260.855 105.015 260.432 105.094 260.077 104.951C240.694 97.1512 230.222 96.4415 213.763 104.879C213.404 105.063 212.959 105.015 212.645 104.76C200.778 95.0902 190.723 95.5657 168.644 104.983C168.348 105.11 167.991 105.083 167.714 104.918Z"/><path stroke="#1D1D1D" stroke-width="60" d="M167.714 104.918C125.17 79.6207 92.1277 120.35 117.728 154.613C117.983 154.953 118.012 155.421 117.783 155.779C101.316 181.565 96.439 228.72 114.413 271.436C114.726 272.179 115.752 272.261 116.208 271.597C118.716 267.947 121.337 265.143 122.072 261.403C122.27 260.399 123.817 259.837 124.439 260.649C146.081 288.845 155.529 301.965 177.03 319.839C177.679 320.379 178.665 319.92 178.665 319.076V310.582C178.665 309.694 179.739 309.249 180.372 309.872C191.151 320.483 198.517 327.186 212.768 333.999C213.018 334.119 213.316 334.128 213.574 334.025C231.458 326.855 240.198 320.287 251.47 309.779C252.112 309.18 253.165 309.631 253.165 310.508V318.972C253.165 319.833 254.188 320.285 254.832 319.714C279.124 298.186 291.919 284.819 306.979 259.684C307.429 258.933 308.566 259.071 308.81 259.913L311.83 270.314C312.098 271.236 313.387 271.273 313.721 270.372C329.614 227.561 331.092 201.998 312.819 155.579C312.722 155.333 312.727 155.045 312.83 154.801C331.334 111.215 291.983 77.6182 261.143 104.762C260.855 105.015 260.432 105.094 260.077 104.951C240.694 97.1512 230.222 96.4415 213.763 104.879C213.404 105.063 212.959 105.015 212.645 104.76C200.778 95.0902 190.723 95.5657 168.644 104.983C168.348 105.11 167.991 105.083 167.714 104.918Z" mask="url(#path-2-inside-1_1_3)"/></g><g id="Eyes"><g id="Eye"><mask id="path-3-inside-2_1_3" fill="#fff"><path d="M179.665 163.688C167.328 159.507 160.639 159.815 149.165 165.688L168.165 168.688C169.118 175.627 171.539 178.002 177.165 181.188C169.504 199.409 172.217 209.001 176.165 226.188C177.167 205.516 178.166 194.286 190.165 182.688C198.462 177.8 202.14 173.961 205.665 163.688C195.511 167.307 189.818 168.173 179.665 163.688Z"/></mask><g filter="url(#filter2_i_1_3)"><path fill="#1D1D1D" d="M179.665 163.688C167.328 159.507 160.639 159.815 149.165 165.688L168.165 168.688C169.118 175.627 171.539 178.002 177.165 181.188C169.504 199.409 172.217 209.001 176.165 226.188C177.167 205.516 178.166 194.286 190.165 182.688C198.462 177.8 202.14 173.961 205.665 163.688C195.511 167.307 189.818 168.173 179.665 163.688Z"/></g><path stroke="#1D1D1D" stroke-width="6" d="M179.665 163.688C167.328 159.507 160.639 159.815 149.165 165.688L168.165 168.688C169.118 175.627 171.539 178.002 177.165 181.188C169.504 199.409 172.217 209.001 176.165 226.188C177.167 205.516 178.166 194.286 190.165 182.688C198.462 177.8 202.14 173.961 205.665 163.688C195.511 167.307 189.818 168.173 179.665 163.688Z" mask="url(#path-3-inside-2_1_3)"/></g><g id="Eye_2"><mask id="path-4-inside-3_1_3" fill="#fff"><path d="M250.165 163.509C262.501 159.328 269.191 159.635 280.665 165.509L261.665 168.509C260.712 175.448 258.291 177.823 252.665 181.009C260.326 199.23 257.612 208.822 253.665 226.009C252.662 205.336 251.663 194.107 239.665 182.509C231.368 177.62 227.689 173.781 224.165 163.509C234.318 167.128 240.011 167.993 250.165 163.509Z"/></mask><g filter="url(#filter3_i_1_3)"><path fill="#1D1D1D" d="M250.165 163.509C262.501 159.328 269.191 159.635 280.665 165.509L261.665 168.509C260.712 175.448 258.291 177.823 252.665 181.009C260.326 199.23 257.612 208.822 253.665 226.009C252.662 205.336 251.663 194.107 239.665 182.509C231.368 177.62 227.689 173.781 224.165 163.509C234.318 167.128 240.011 167.993 250.165 163.509Z"/></g><path stroke="#1D1D1D" stroke-width="6" d="M250.165 163.509C262.501 159.328 269.191 159.635 280.665 165.509L261.665 168.509C260.712 175.448 258.291 177.823 252.665 181.009C260.326 199.23 257.612 208.822 253.665 226.009C252.662 205.336 251.663 194.107 239.665 182.509C231.368 177.62 227.689 173.781 224.165 163.509C234.318 167.128 240.011 167.993 250.165 163.509Z" mask="url(#path-4-inside-3_1_3)"/></g></g><g id="Mouth" style="mix-blend-mode:darken"><path id="Mouth_2" fill="#1D1D1D" d="M249.165 233.188C249.426 240.688 243.165 265.688 213.665 265.688C184.165 265.688 179.165 237.688 179.665 233.188C180.165 228.688 196.165 208.688 213.665 208.688C231.165 208.688 248.903 225.688 249.165 233.188Z"/><g id="Zuby"><path fill="#fff" d="M194.768 237.779C195.122 238.768 196.566 238.613 196.702 237.572L197.665 230.188C210.942 226.222 218.387 226.261 231.665 230.188L232.296 237.444C232.387 238.497 233.836 238.706 234.223 237.723L237.511 229.352C237.883 228.405 237.483 227.326 236.577 226.862C219.361 218.052 209.232 217.998 192.658 226.874C191.795 227.337 191.406 228.365 191.736 229.287L194.768 237.779Z"/><path fill="#fff" d="M202.51 245.11C201.975 244.263 200.665 244.642 200.665 245.644V253.688C200.665 255.345 202.008 256.688 203.665 256.688H225.059C226.757 256.688 228.116 255.281 228.058 253.585L227.794 245.953C227.759 244.928 226.388 244.614 225.91 245.522L222.665 251.688H206.665L202.51 245.11Z"/><path stroke="#fff" stroke-width="3" d="M194.768 237.779C195.122 238.768 196.566 238.613 196.702 237.572L197.665 230.188C210.942 226.222 218.387 226.261 231.665 230.188L232.296 237.444C232.387 238.497 233.836 238.706 234.223 237.723L237.511 229.352C237.883 228.405 237.483 227.326 236.577 226.862C219.361 218.052 209.232 217.998 192.658 226.874C191.795 227.337 191.406 228.365 191.736 229.287L194.768 237.779Z"/><path stroke="#fff" stroke-width="3" d="M202.51 245.11C201.975 244.263 200.665 244.642 200.665 245.644V253.688C200.665 255.345 202.008 256.688 203.665 256.688H225.059C226.757 256.688 228.116 255.281 228.058 253.585L227.794 245.953C227.759 244.928 226.388 244.614 225.91 245.522L222.665 251.688H206.665L202.51 245.11Z"/></g></g><g id="Nose"><path id="Nose_2" fill="#1D1D1D" stroke="#1D1D1D" stroke-width="3" d="M241.14 204.858C224.275 175.411 204.74 175.299 186.484 204.522C186.194 204.986 186.744 205.504 187.182 205.175L195.165 199.188C207.665 216.188 221.665 215.688 231.165 199.188L240.447 205.517C240.881 205.813 241.401 205.314 241.14 204.858Z"/><path id="Dira" fill="#654D29" stroke="#654D29" stroke-width="2" d="M227.642 197.829C226.37 180.111 202.776 180.288 200.77 196.987C200.755 197.109 200.983 197.162 201.03 197.049C203.007 192.382 209.665 191.688 209.665 191.688C213.665 192.188 204.665 205.188 214.665 205.188C224.665 205.188 216.597 193.043 218.665 191.688C221.4 189.897 226.402 196.452 227.463 197.908C227.523 197.989 227.649 197.93 227.642 197.829Z"/></g></g><g id="ahast" filter="url(#filter4_d_1_3)"><path fill="#1D5B48" d="M117.4 403.96C113.624 403.96 110.2 403.16 107.128 401.56C104.056 399.96 101.624 397.624 99.8316 394.552C98.0396 391.416 97.1436 387.544 97.1436 382.936C97.1436 378.456 98.0716 374.616 99.9276 371.416C101.848 368.152 104.344 365.656 107.416 363.928C110.552 362.136 113.944 361.24 117.592 361.24C121.432 361.24 124.6 362.04 127.096 363.64C129.592 365.24 131.512 367.16 132.856 369.4L132.28 370.936L133.24 362.872H142.168V403H132.472V392.824L133.432 395.224C133.176 395.736 132.632 396.472 131.8 397.432C130.968 398.392 129.88 399.384 128.536 400.408C127.192 401.368 125.56 402.2 123.64 402.904C121.784 403.608 119.704 403.96 117.4 403.96ZM119.992 395.992C123.192 395.992 125.88 395.16 128.056 393.496C130.296 391.768 131.768 389.432 132.472 386.488V378.232C131.704 375.608 130.136 373.432 127.768 371.704C125.464 369.976 122.776 369.112 119.704 369.112C117.4 369.112 115.288 369.688 113.368 370.84C111.448 371.928 109.912 373.496 108.76 375.544C107.608 377.528 107.032 379.832 107.032 382.456C107.032 385.016 107.608 387.32 108.76 389.368C109.976 391.416 111.576 393.048 113.56 394.264C115.544 395.416 117.688 395.992 119.992 395.992ZM157.318 403V328.408H166.822V371.992L166.63 370.36C168.038 367.736 170.118 365.592 172.87 363.928C175.622 362.2 178.918 361.336 182.758 361.336C186.534 361.336 189.638 362.456 192.07 364.696C194.502 366.872 195.75 369.752 195.814 373.336V403H186.118V376.696C186.054 374.648 185.446 372.984 184.294 371.704C183.142 370.36 181.35 369.656 178.918 369.592C175.526 369.592 172.678 371.032 170.374 373.912C168.134 376.728 167.014 380.312 167.014 384.664V403H157.318ZM227.837 403.96C224.061 403.96 220.637 403.16 217.565 401.56C214.493 399.96 212.061 397.624 210.269 394.552C208.477 391.416 207.581 387.544 207.581 382.936C207.581 378.456 208.509 374.616 210.365 371.416C212.285 368.152 214.781 365.656 217.853 363.928C220.989 362.136 224.381 361.24 228.029 361.24C231.869 361.24 235.037 362.04 237.533 363.64C240.029 365.24 241.949 367.16 243.293 369.4L242.717 370.936L243.677 362.872H252.605V403H242.909V392.824L243.869 395.224C243.613 395.736 243.069 396.472 242.237 397.432C241.405 398.392 240.317 399.384 238.973 400.408C237.629 401.368 235.997 402.2 234.077 402.904C232.221 403.608 230.141 403.96 227.837 403.96ZM230.429 395.992C233.629 395.992 236.317 395.16 238.493 393.496C240.733 391.768 242.205 389.432 242.909 386.488V378.232C242.141 375.608 240.573 373.432 238.205 371.704C235.901 369.976 233.213 369.112 230.141 369.112C227.837 369.112 225.725 369.688 223.805 370.84C221.885 371.928 220.349 373.496 219.197 375.544C218.045 377.528 217.469 379.832 217.469 382.456C217.469 385.016 218.045 387.32 219.197 389.368C220.413 391.416 222.013 393.048 223.997 394.264C225.981 395.416 228.125 395.992 230.429 395.992ZM279.372 403.864C276.428 403.864 273.612 403.352 270.924 402.328C268.236 401.24 265.964 399.704 264.108 397.72L268.236 392.152C269.9 393.752 271.628 394.968 273.42 395.8C275.276 396.632 277.004 397.048 278.604 397.048C280.46 397.048 282.092 396.696 283.5 395.992C284.908 395.224 285.612 393.976 285.612 392.248C285.612 390.84 285.132 389.752 284.172 388.984C283.276 388.216 282.124 387.576 280.716 387.064C279.308 386.552 277.804 386.072 276.204 385.624C272.876 384.536 270.316 383 268.524 381.016C266.796 378.968 265.932 376.568 265.932 373.816C265.932 371.704 266.444 369.72 267.468 367.864C268.556 365.944 270.188 364.408 272.364 363.256C274.54 362.04 277.228 361.432 280.428 361.432C283.244 361.432 285.772 361.784 288.012 362.488C290.252 363.128 292.332 364.248 294.252 365.848L290.508 371.704C289.356 370.552 287.98 369.688 286.38 369.112C284.844 368.472 283.436 368.12 282.156 368.056C280.428 368.056 278.924 368.472 277.644 369.304C276.364 370.072 275.724 371.128 275.724 372.472C275.724 373.816 276.172 374.904 277.068 375.736C277.964 376.504 279.116 377.144 280.524 377.656C281.996 378.104 283.468 378.584 284.94 379.096C287.884 380.056 290.316 381.368 292.236 383.032C294.22 384.696 295.212 387.128 295.212 390.328C295.212 392.76 294.636 395 293.484 397.048C292.332 399.096 290.572 400.76 288.204 402.04C285.9 403.256 282.956 403.864 279.372 403.864ZM311.346 345.304H321.138V362.968H331.89V370.552H321.138V403H311.346V370.552H304.242V362.968H311.346V345.304Z"/></g></g><defs><filter id="filter0_d_1_3" width="272.509" height="293.261" x="78.207" y="63.57" color-interpolation-filters="sRGB" filterUnits="userSpaceOnUse"><feFlood flood-opacity="0" result="BackgroundImageFix"/><feColorMatrix in="SourceAlpha" result="hardAlpha" type="matrix" values="0 0 0 0 0 0 0 0 0 0 0 0 0 0 0 0 0 0 127 0"/><feOffset dy="4"/><feGaussianBlur stdDeviation="2"/><feComposite in2="hardAlpha" operator="out"/><feColorMatrix type="matrix" values="0 0 0 0 0 0 0 0 0 0 0 0 0 0 0 0 0 0 0.25 0"/><feBlend in2="BackgroundImageFix" mode="normal" result="effect1_dropShadow_1_3"/><feBlend in="SourceGraphic" in2="effect1_dropShadow_1_3" mode="normal" result="shape"/></filter><filter id="filter1_d_1_3" width="231.083" height="247.096" x="99" y="95" color-interpolation-filters="sRGB" filterUnits="userSpaceOnUse"><feFlood flood-opacity="0" result="BackgroundImageFix"/><feColorMatrix in="SourceAlpha" result="hardAlpha" type="matrix" values="0 0 0 0 0 0 0 0 0 0 0 0 0 0 0 0 0 0 127 0"/><feOffset dy="4"/><feGaussianBlur stdDeviation="2"/><feComposite in2="hardAlpha" operator="out"/><feColorMatrix type="matrix" values="0 0 0 0 0 0 0 0 0 0 0 0 0 0 0 0 0 0 0.25 0"/><feBlend in2="BackgroundImageFix" mode="normal" result="effect1_dropShadow_1_3"/><feBlend in="SourceGraphic" in2="effect1_dropShadow_1_3" mode="normal" result="shape"/></filter><filter id="filter2_i_1_3" width="56.5" height="69.321" x="149.165" y="160.868" color-interpolation-filters="sRGB" filterUnits="userSpaceOnUse"><feFlood flood-opacity="0" result="BackgroundImageFix"/><feBlend in="SourceGraphic" in2="BackgroundImageFix" mode="normal" result="shape"/><feColorMatrix in="SourceAlpha" result="hardAlpha" type="matrix" values="0 0 0 0 0 0 0 0 0 0 0 0 0 0 0 0 0 0 127 0"/><feOffset dy="4"/><feGaussianBlur stdDeviation="2"/><feComposite in2="hardAlpha" k2="-1" k3="1" operator="arithmetic"/><feColorMatrix type="matrix" values="0 0 0 0 0 0 0 0 0 0 0 0 0 0 0 0 0 0 0.25 0"/><feBlend in2="shape" mode="normal" result="effect1_innerShadow_1_3"/></filter><filter id="filter3_i_1_3" width="56.5" height="69.321" x="224.165" y="160.688" color-interpolation-filters="sRGB" filterUnits="userSpaceOnUse"><feFlood flood-opacity="0" result="BackgroundImageFix"/><feBlend in="SourceGraphic" in2="BackgroundImageFix" mode="normal" result="shape"/><feColorMatrix in="SourceAlpha" result="hardAlpha" type="matrix" values="0 0 0 0 0 0 0 0 0 0 0 0 0 0 0 0 0 0 127 0"/><feOffset dy="4"/><feGaussianBlur stdDeviation="2"/><feComposite in2="hardAlpha" k2="-1" k3="1" operator="arithmetic"/><feColorMatrix type="matrix" values="0 0 0 0 0 0 0 0 0 0 0 0 0 0 0 0 0 0 0.25 0"/><feBlend in2="shape" mode="normal" result="effect1_innerShadow_1_3"/></filter><filter id="filter4_d_1_3" width="260.746" height="108.552" x="86.144" y="328.408" color-interpolation-filters="sRGB" filterUnits="userSpaceOnUse"><feFlood flood-opacity="0" result="BackgroundImageFix"/><feColorMatrix in="SourceAlpha" result="hardAlpha" type="matrix" values="0 0 0 0 0 0 0 0 0 0 0 0 0 0 0 0 0 0 127 0"/><feOffset dx="2" dy="20"/><feGaussianBlur stdDeviation="6.5"/><feComposite in2="hardAlpha" operator="out"/><feColorMatrix type="matrix" values="0 0 0 0 0 0 0 0 0 0 0 0 0 0 0 0 0 0 0.3 0"/><feBlend in2="BackgroundImageFix" mode="normal" result="effect1_dropShadow_1_3"/><feBlend in="SourceGraphic" in2="effect1_dropShadow_1_3" mode="normal" result="shape"/></filter><clipPath id="clip0_1_3"><rect width="430" height="430" fill="#fff"/></clipPath></defs></svg>