<svg xmlns="http://www.w3.org/2000/svg" width="232" height="248" fill="none" viewBox="0 0 232 248"><g id="Meda"><g id="Silueta-Medvěd" filter="url(#filter0_d_2_26)"><mask id="path-1-inside-1_2_26" fill="#fff"><path d="M68.7136 9.91798C26.1695 -15.3793 -6.87231 25.3503 18.7284 59.6127C18.9828 59.9531 19.0119 60.4207 18.7832 60.7789C2.3163 86.5646 -2.56105 133.72 15.4134 176.436C15.7258 177.179 16.7521 177.261 17.2082 176.597C19.7161 172.947 22.3372 170.143 23.0724 166.403C23.2697 165.399 24.8165 164.837 25.4394 165.649C47.0806 193.845 56.5291 206.965 78.0297 224.839C78.6787 225.379 79.6647 224.92 79.6647 224.076V215.582C79.6647 214.694 80.7389 214.249 81.3718 214.872C92.1509 225.483 99.5171 232.186 113.768 238.999C114.018 239.119 114.316 239.128 114.574 239.025C132.458 231.855 141.198 225.287 152.47 214.779C153.112 214.18 154.165 214.631 154.165 215.508V223.972C154.165 224.833 155.188 225.285 155.832 224.714C180.124 203.186 192.919 189.819 207.979 164.684C208.429 163.933 209.566 164.071 209.81 164.913L212.83 175.314C213.098 176.236 214.387 176.273 214.721 175.372C230.614 132.561 232.092 106.998 213.819 60.579C213.722 60.3327 213.727 60.0448 213.83 59.8012C232.334 16.215 192.983 -17.3818 162.143 9.76203C161.855 10.0154 161.432 10.0939 161.077 9.95076C141.694 2.15122 131.222 1.44146 114.763 9.87885C114.404 10.0632 113.959 10.0151 113.645 9.75994C101.778 0.0901839 91.7235 0.565673 69.6441 9.98339C69.3475 10.1099 68.9907 10.0828 68.7136 9.91798Z"/></mask><path fill="#654D29" d="M68.7136 9.91798C26.1695 -15.3793 -6.87231 25.3503 18.7284 59.6127C18.9828 59.9531 19.0119 60.4207 18.7832 60.7789C2.3163 86.5646 -2.56105 133.72 15.4134 176.436C15.7258 177.179 16.7521 177.261 17.2082 176.597C19.7161 172.947 22.3372 170.143 23.0724 166.403C23.2697 165.399 24.8165 164.837 25.4394 165.649C47.0806 193.845 56.5291 206.965 78.0297 224.839C78.6787 225.379 79.6647 224.92 79.6647 224.076V215.582C79.6647 214.694 80.7389 214.249 81.3718 214.872C92.1509 225.483 99.5171 232.186 113.768 238.999C114.018 239.119 114.316 239.128 114.574 239.025C132.458 231.855 141.198 225.287 152.47 214.779C153.112 214.18 154.165 214.631 154.165 215.508V223.972C154.165 224.833 155.188 225.285 155.832 224.714C180.124 203.186 192.919 189.819 207.979 164.684C208.429 163.933 209.566 164.071 209.81 164.913L212.83 175.314C213.098 176.236 214.387 176.273 214.721 175.372C230.614 132.561 232.092 106.998 213.819 60.579C213.722 60.3327 213.727 60.0448 213.83 59.8012C232.334 16.215 192.983 -17.3818 162.143 9.76203C161.855 10.0154 161.432 10.0939 161.077 9.95076C141.694 2.15122 131.222 1.44146 114.763 9.87885C114.404 10.0632 113.959 10.0151 113.645 9.75994C101.778 0.0901839 91.7235 0.565673 69.6441 9.98339C69.3475 10.1099 68.9907 10.0828 68.7136 9.91798Z"/><path stroke="#1D1D1D" stroke-width="60" d="M68.7136 9.91798C26.1695 -15.3793 -6.87231 25.3503 18.7284 59.6127C18.9828 59.9531 19.0119 60.4207 18.7832 60.7789C2.3163 86.5646 -2.56105 133.72 15.4134 176.436C15.7258 177.179 16.7521 177.261 17.2082 176.597C19.7161 172.947 22.3372 170.143 23.0724 166.403C23.2697 165.399 24.8165 164.837 25.4394 165.649C47.0806 193.845 56.5291 206.965 78.0297 224.839C78.6787 225.379 79.6647 224.92 79.6647 224.076V215.582C79.6647 214.694 80.7389 214.249 81.3718 214.872C92.1509 225.483 99.5171 232.186 113.768 238.999C114.018 239.119 114.316 239.128 114.574 239.025C132.458 231.855 141.198 225.287 152.47 214.779C153.112 214.18 154.165 214.631 154.165 215.508V223.972C154.165 224.833 155.188 225.285 155.832 224.714C180.124 203.186 192.919 189.819 207.979 164.684C208.429 163.933 209.566 164.071 209.81 164.913L212.83 175.314C213.098 176.236 214.387 176.273 214.721 175.372C230.614 132.561 232.092 106.998 213.819 60.579C213.722 60.3327 213.727 60.0448 213.83 59.8012C232.334 16.215 192.983 -17.3818 162.143 9.76203C161.855 10.0154 161.432 10.0939 161.077 9.95076C141.694 2.15122 131.222 1.44146 114.763 9.87885C114.404 10.0632 113.959 10.0151 113.645 9.75994C101.778 0.0901839 91.7235 0.565673 69.6441 9.98339C69.3475 10.1099 68.9907 10.0828 68.7136 9.91798Z" mask="url(#path-1-inside-1_2_26)"/></g><g id="Eyes"><g id="Eye"><mask id="path-2-inside-2_2_26" fill="#fff"><path d="M80.6647 68.6885C68.328 64.5069 61.6388 64.8147 50.1647 70.6885L69.1647 73.6885C70.1177 80.6273 72.5388 83.0023 78.1647 86.1885C70.5035 104.409 73.2168 114.001 77.1647 131.188C78.1669 110.516 79.1659 99.2863 91.1647 87.6885C99.4616 82.7995 103.14 78.9606 106.665 68.6885C96.511 72.3072 90.8183 73.1727 80.6647 68.6885Z"/></mask><g filter="url(#filter1_i_2_26)"><path fill="#1D1D1D" d="M80.6647 68.6885C68.328 64.5069 61.6388 64.8147 50.1647 70.6885L69.1647 73.6885C70.1177 80.6273 72.5388 83.0023 78.1647 86.1885C70.5035 104.409 73.2168 114.001 77.1647 131.188C78.1669 110.516 79.1659 99.2863 91.1647 87.6885C99.4616 82.7995 103.14 78.9606 106.665 68.6885C96.511 72.3072 90.8183 73.1727 80.6647 68.6885Z"/></g><path stroke="#1D1D1D" stroke-width="6" d="M80.6647 68.6885C68.328 64.5069 61.6388 64.8147 50.1647 70.6885L69.1647 73.6885C70.1177 80.6273 72.5388 83.0023 78.1647 86.1885C70.5035 104.409 73.2168 114.001 77.1647 131.188C78.1669 110.516 79.1659 99.2863 91.1647 87.6885C99.4616 82.7995 103.14 78.9606 106.665 68.6885C96.511 72.3072 90.8183 73.1727 80.6647 68.6885Z" mask="url(#path-2-inside-2_2_26)"/></g><g id="Eye_2"><mask id="path-3-inside-3_2_26" fill="#fff"><path d="M151.165 68.5091C163.501 64.3275 170.191 64.6353 181.665 70.5091L162.665 73.5091C161.712 80.4479 159.291 82.8229 153.665 86.0091C161.326 104.23 158.612 113.822 154.665 131.009C153.662 110.336 152.663 99.1069 140.665 87.5091C132.368 82.6201 128.689 78.7812 125.165 68.5091C135.318 72.1278 141.011 72.9933 151.165 68.5091Z"/></mask><g filter="url(#filter2_i_2_26)"><path fill="#1D1D1D" d="M151.165 68.5091C163.501 64.3275 170.191 64.6353 181.665 70.5091L162.665 73.5091C161.712 80.4479 159.291 82.8229 153.665 86.0091C161.326 104.23 158.612 113.822 154.665 131.009C153.662 110.336 152.663 99.1069 140.665 87.5091C132.368 82.6201 128.689 78.7812 125.165 68.5091C135.318 72.1278 141.011 72.9933 151.165 68.5091Z"/></g><path stroke="#1D1D1D" stroke-width="6" d="M151.165 68.5091C163.501 64.3275 170.191 64.6353 181.665 70.5091L162.665 73.5091C161.712 80.4479 159.291 82.8229 153.665 86.0091C161.326 104.23 158.612 113.822 154.665 131.009C153.662 110.336 152.663 99.1069 140.665 87.5091C132.368 82.6201 128.689 78.7812 125.165 68.5091C135.318 72.1278 141.011 72.9933 151.165 68.5091Z" mask="url(#path-3-inside-3_2_26)"/></g></g><g id="Mouth" style="mix-blend-mode:darken"><path id="Mouth_2" fill="#1D1D1D" d="M150.165 138.188C150.426 145.688 144.165 170.688 114.665 170.688C85.1647 170.688 80.1646 142.688 80.6647 138.188C81.1647 133.688 97.1646 113.688 114.665 113.688C132.165 113.688 149.903 130.688 150.165 138.188Z"/><g id="Zuby"><path fill="#fff" d="M95.7683 142.779C96.1216 143.768 97.5658 143.613 97.7016 142.572L98.6647 135.188C111.942 131.222 119.387 131.261 132.665 135.188L133.296 142.444C133.387 143.497 134.836 143.706 135.223 142.723L138.511 134.352C138.883 133.405 138.483 132.326 137.577 131.862C120.361 123.052 110.232 122.998 93.6579 131.874C92.7948 132.337 92.4063 133.365 92.7357 134.287L95.7683 142.779Z"/><path fill="#fff" d="M103.51 150.11C102.975 149.263 101.665 149.642 101.665 150.644V158.688C101.665 160.345 103.008 161.688 104.665 161.688H126.059C127.757 161.688 129.116 160.281 129.058 158.585L128.794 150.953C128.759 149.928 127.388 149.614 126.91 150.522L123.665 156.688H107.665L103.51 150.11Z"/><path stroke="#fff" stroke-width="3" d="M95.7683 142.779C96.1216 143.768 97.5658 143.613 97.7016 142.572L98.6647 135.188C111.942 131.222 119.387 131.261 132.665 135.188L133.296 142.444C133.387 143.497 134.836 143.706 135.223 142.723L138.511 134.352C138.883 133.405 138.483 132.326 137.577 131.862C120.361 123.052 110.232 122.998 93.6579 131.874C92.7948 132.337 92.4063 133.365 92.7357 134.287L95.7683 142.779Z"/><path stroke="#fff" stroke-width="3" d="M103.51 150.11C102.975 149.263 101.665 149.642 101.665 150.644V158.688C101.665 160.345 103.008 161.688 104.665 161.688H126.059C127.757 161.688 129.116 160.281 129.058 158.585L128.794 150.953C128.759 149.928 127.388 149.614 126.91 150.522L123.665 156.688H107.665L103.51 150.11Z"/></g></g><g id="Nose"><path id="Nose_2" fill="#1D1D1D" stroke="#1D1D1D" stroke-width="3" d="M142.14 109.858C125.275 80.4111 105.74 80.2991 87.4839 109.522C87.1938 109.986 87.744 110.504 88.182 110.175L96.1647 104.188C108.665 121.188 122.665 120.688 132.165 104.188L141.447 110.517C141.881 110.813 142.401 110.314 142.14 109.858Z"/><path id="Dira" fill="#654D29" stroke="#654D29" stroke-width="2" d="M128.642 102.829C127.37 85.1109 103.776 85.2876 101.77 101.987C101.755 102.109 101.983 102.162 102.03 102.049C104.007 97.3821 110.665 96.6884 110.665 96.6884C114.665 97.1884 105.665 110.188 115.665 110.188C125.665 110.188 117.597 98.0429 119.665 96.6884C122.4 94.8966 127.402 101.452 128.463 102.908C128.523 102.989 128.649 102.93 128.642 102.829Z"/></g></g><defs><filter id="filter0_d_2_26" width="231.083" height="247.096" x="0" y="0" color-interpolation-filters="sRGB" filterUnits="userSpaceOnUse"><feFlood flood-opacity="0" result="BackgroundImageFix"/><feColorMatrix in="SourceAlpha" result="hardAlpha" type="matrix" values="0 0 0 0 0 0 0 0 0 0 0 0 0 0 0 0 0 0 127 0"/><feOffset dy="4"/><feGaussianBlur stdDeviation="2"/><feComposite in2="hardAlpha" operator="out"/><feColorMatrix type="matrix" values="0 0 0 0 0 0 0 0 0 0 0 0 0 0 0 0 0 0 0.25 0"/><feBlend in2="BackgroundImageFix" mode="normal" result="effect1_dropShadow_2_26"/><feBlend in="SourceGraphic" in2="effect1_dropShadow_2_26" mode="normal" result="shape"/></filter><filter id="filter1_i_2_26" width="56.5" height="69.321" x="50.165" y="65.868" color-interpolation-filters="sRGB" filterUnits="userSpaceOnUse"><feFlood flood-opacity="0" result="BackgroundImageFix"/><feBlend in="SourceGraphic" in2="BackgroundImageFix" mode="normal" result="shape"/><feColorMatrix in="SourceAlpha" result="hardAlpha" type="matrix" values="0 0 0 0 0 0 0 0 0 0 0 0 0 0 0 0 0 0 127 0"/><feOffset dy="4"/><feGaussianBlur stdDeviation="2"/><feComposite in2="hardAlpha" k2="-1" k3="1" operator="arithmetic"/><feColorMatrix type="matrix" values="0 0 0 0 0 0 0 0 0 0 0 0 0 0 0 0 0 0 0.25 0"/><feBlend in2="shape" mode="normal" result="effect1_innerShadow_2_26"/></filter><filter id="filter2_i_2_26" width="56.5" height="69.321" x="125.165" y="65.688" color-interpolation-filters="sRGB" filterUnits="userSpaceOnUse"><feFlood flood-opacity="0" result="BackgroundImageFix"/><feBlend in="SourceGraphic" in2="BackgroundImageFix" mode="normal" result="shape"/><feColorMatrix in="SourceAlpha" result="hardAlpha" type="matrix" values="0 0 0 0 0 0 0 0 0 0 0 0 0 0 0 0 0 0 127 0"/><feOffset dy="4"/><feGaussianBlur stdDeviation="2"/><feComposite in2="hardAlpha" k2="-1" k3="1" operator="arithmetic"/><feColorMatrix type="matrix" values="0 0 0 0 0 0 0 0 0 0 0 0 0 0 0 0 0 0 0.25 0"/><feBlend in2="shape" mode="normal" result="effect1_innerShadow_2_26"/></filter></defs></svg>