<svg xmlns="http://www.w3.org/2000/svg" width="392" height="392" preserveAspectRatio="xMidYMid meet" version="1.0" viewBox="0 0 294 294"><metadata>Created by potrace 1.14, written by Peter Selinger 2001-2017</metadata><g fill="#000" stroke="none"><path d="M1180 2824 c-559 -193 -689 -238 -772 -265 -105 -34 -124 -43 -138 -69 -6 -11 -31 -208 -55 -437 -24 -230 -47 -440 -50 -468 -3 -27 -8 -80 -12 -117 l-6 -67 163 -413 c90 -230 171 -423 183 -435 30 -31 942 -483 973 -483 14 0 101 38 192 84 92 47 300 150 462 231 162 81 303 155 314 165 10 10 92 203 181 430 178 449 170 420 145 575 -18 114 -19 118 -25 165 -3 25 -8 56 -10 70 -2 14 -7 45 -11 70 -77 547 -90 621 -115 644 -15 15 -96 48 -219 89 -176 59 -580 198 -812 278 -48 17 -101 32 -116 34 -16 3 -126 -30 -272 -81z" transform="translate(0.000000,294.000000) scale(0.100000,-0.100000)"/></g></svg>