<svg xmlns="http://www.w3.org/2000/svg" width="273" height="294" fill="none" viewBox="0 0 273 294"><g id="ŠTÍT" filter="url(#filter0_d_2_37)" opacity=".8"><path fill="#006076" d="M131.259 1.10765C133.36 0.389688 135.64 0.391166 137.739 1.11185L246.745 38.5247C250.28 39.7381 252.844 42.8218 253.391 46.5192L268.608 149.35C268.865 151.086 268.66 152.859 268.015 154.491L236.411 234.432C235.502 236.729 233.776 238.609 231.565 239.709L140.954 284.784C138.149 286.18 134.851 286.18 132.046 284.784L41.4351 239.709C39.2236 238.609 37.4975 236.729 36.5894 234.432L4.90694 154.294C4.31124 152.787 4.09059 151.158 4.26396 149.547L15.3185 46.8327C15.7342 42.9694 18.3502 39.6968 22.027 38.4401L131.259 1.10765Z"/></g><defs><filter id="filter0_d_2_37" width="272.509" height="293.261" x=".207" y=".57" color-interpolation-filters="sRGB" filterUnits="userSpaceOnUse"><feFlood flood-opacity="0" result="BackgroundImageFix"/><feColorMatrix in="SourceAlpha" result="hardAlpha" type="matrix" values="0 0 0 0 0 0 0 0 0 0 0 0 0 0 0 0 0 0 127 0"/><feOffset dy="4"/><feGaussianBlur stdDeviation="2"/><feComposite in2="hardAlpha" operator="out"/><feColorMatrix type="matrix" values="0 0 0 0 0 0 0 0 0 0 0 0 0 0 0 0 0 0 0.25 0"/><feBlend in2="BackgroundImageFix" mode="normal" result="effect1_dropShadow_2_37"/><feBlend in="SourceGraphic" in2="effect1_dropShadow_2_37" mode="normal" result="shape"/></filter></defs></svg>