<svg id="visual" viewBox="0 0 960 540" width="960" height="300" xmlns="http://www.w3.org/2000/svg" xmlns:xlink="http://www.w3.org/1999/xlink" version="1.1"><rect x="0" y="0" width="960" height="540" fill="#3c31dd"></rect><path d="M0 203L22.8 206C45.7 209 91.3 215 137 216.3C182.7 217.7 228.3 214.3 274 203.5C319.7 192.7 365.3 174.3 411.2 172.8C457 171.3 503 186.7 548.8 186.2C594.7 185.7 640.3 169.3 686 169.2C731.7 169 777.3 185 823 193.8C868.7 202.7 914.3 204.3 937.2 205.2L960 206L960 0L937.2 0C914.3 0 868.7 0 823 0C777.3 0 731.7 0 686 0C640.3 0 594.7 0 548.8 0C503 0 457 0 411.2 0C365.3 0 319.7 0 274 0C228.3 0 182.7 0 137 0C91.3 0 45.7 0 22.8 0L0 0Z" fill="#dd3f31"></path><path d="M0 175L22.8 164.3C45.7 153.7 91.3 132.3 137 129.3C182.7 126.3 228.3 141.7 274 151.8C319.7 162 365.3 167 411.2 170.2C457 173.3 503 174.7 548.8 173.3C594.7 172 640.3 168 686 168.7C731.7 169.3 777.3 174.7 823 174.5C868.7 174.3 914.3 168.7 937.2 165.8L960 163L960 0L937.2 0C914.3 0 868.7 0 823 0C777.3 0 731.7 0 686 0C640.3 0 594.7 0 548.8 0C503 0 457 0 411.2 0C365.3 0 319.7 0 274 0C228.3 0 182.7 0 137 0C91.3 0 45.7 0 22.8 0L0 0Z" fill="#df363d"></path><path d="M0 94L22.8 94.7C45.7 95.3 91.3 96.7 137 102.3C182.7 108 228.3 118 274 118C319.7 118 365.3 108 411.2 106.2C457 104.3 503 110.7 548.8 113.7C594.7 116.7 640.3 116.3 686 116.7C731.7 117 777.3 118 823 114.2C868.7 110.3 914.3 101.7 937.2 97.3L960 93L960 0L937.2 0C914.3 0 868.7 0 823 0C777.3 0 731.7 0 686 0C640.3 0 594.7 0 548.8 0C503 0 457 0 411.2 0C365.3 0 319.7 0 274 0C228.3 0 182.7 0 137 0C91.3 0 45.7 0 22.8 0L0 0Z" fill="#e02d49"></path><path d="M0 95L22.8 94.2C45.7 93.3 91.3 91.7 137 92.7C182.7 93.7 228.3 97.3 274 95.7C319.7 94 365.3 87 411.2 85.5C457 84 503 88 548.8 91C594.7 94 640.3 96 686 96.5C731.7 97 777.3 96 823 89.8C868.7 83.7 914.3 72.3 937.2 66.7L960 61L960 0L937.2 0C914.3 0 868.7 0 823 0C777.3 0 731.7 0 686 0C640.3 0 594.7 0 548.8 0C503 0 457 0 411.2 0C365.3 0 319.7 0 274 0C228.3 0 182.7 0 137 0C91.3 0 45.7 0 22.8 0L0 0Z" fill="#df2555"></path><path d="M0 28L22.8 30.5C45.7 33 91.3 38 137 44.3C182.7 50.7 228.3 58.3 274 58C319.7 57.7 365.3 49.3 411.2 43C457 36.7 503 32.3 548.8 35.8C594.7 39.3 640.3 50.7 686 50.2C731.7 49.7 777.3 37.3 823 32C868.7 26.7 914.3 28.3 937.2 29.2L960 30L960 0L937.2 0C914.3 0 868.7 0 823 0C777.3 0 731.7 0 686 0C640.3 0 594.7 0 548.8 0C503 0 457 0 411.2 0C365.3 0 319.7 0 274 0C228.3 0 182.7 0 137 0C91.3 0 45.7 0 22.8 0L0 0Z" fill="#dd1f60"></path></svg>